<?xml version="1.0" encoding="UTF-8" standalone="no"?>
<!-- Generator: Adobe Illustrator 19.0.0, SVG Export Plug-In . SVG Version: 6.00 Build 0)  -->

<svg
   xmlns:dc="http://purl.org/dc/elements/1.1/"
   xmlns:cc="http://creativecommons.org/ns#"
   xmlns:rdf="http://www.w3.org/1999/02/22-rdf-syntax-ns#"
   xmlns:svg="http://www.w3.org/2000/svg"
   xmlns="http://www.w3.org/2000/svg"
   xmlns:sodipodi="http://sodipodi.sourceforge.net/DTD/sodipodi-0.dtd"
   xmlns:inkscape="http://www.inkscape.org/namespaces/inkscape"
   version="1.1"
   id="Capa_1"
   x="0px"
   y="0px"
   viewBox="0 0 1840.8308 1660.3745"
   xml:space="preserve"
   sodipodi:docname="logo.svg"
   width="1840.8308"
   height="1660.3745"
   inkscape:version="0.92.4 (5da689c313, 2019-01-14)"><metadata
   id="metadata69"><rdf:RDF><cc:Work
       rdf:about=""><dc:format>image/svg+xml</dc:format><dc:type
         rdf:resource="http://purl.org/dc/dcmitype/StillImage" /><dc:title></dc:title></cc:Work></rdf:RDF></metadata><defs
   id="defs67">
	
	
	
	
	
	
	
	
	
	
	
	
	
	
	
</defs><sodipodi:namedview
   pagecolor="#ffffff"
   bordercolor="#666666"
   borderopacity="1"
   objecttolerance="10"
   gridtolerance="10"
   guidetolerance="10"
   inkscape:pageopacity="0"
   inkscape:pageshadow="2"
   inkscape:window-width="1920"
   inkscape:window-height="1026"
   id="namedview65"
   showgrid="false"
   fit-margin-top="200"
   fit-margin-left="200"
   fit-margin-right="200"
   fit-margin-bottom="200"
   inkscape:zoom="0.26420062"
   inkscape:cx="290.90799"
   inkscape:cy="561.33451"
   inkscape:window-x="0"
   inkscape:window-y="28"
   inkscape:window-maximized="1"
   inkscape:current-layer="Capa_1" />

<g
   id="g34"
   transform="translate(543.91752,468.8437)">
</g>
<g
   id="g36"
   transform="translate(543.91752,468.8437)">
</g>
<g
   id="g38"
   transform="translate(543.91752,468.8437)">
</g>
<g
   id="g40"
   transform="translate(543.91752,468.8437)">
</g>
<g
   id="g42"
   transform="translate(543.91752,468.8437)">
</g>
<g
   id="g44"
   transform="translate(543.91752,468.8437)">
</g>
<g
   id="g46"
   transform="translate(543.91752,468.8437)">
</g>
<g
   id="g48"
   transform="translate(543.91752,468.8437)">
</g>
<g
   id="g50"
   transform="translate(543.91752,468.8437)">
</g>
<g
   id="g52"
   transform="translate(543.91752,468.8437)">
</g>
<g
   id="g54"
   transform="translate(543.91752,468.8437)">
</g>
<g
   id="g56"
   transform="translate(543.91752,468.8437)">
</g>
<g
   id="g58"
   transform="translate(543.91752,468.8437)">
</g>
<g
   id="g60"
   transform="translate(543.91752,468.8437)">
</g>
<g
   id="g62"
   transform="translate(543.91752,468.8437)">
</g>
<g
   id="g966"
   transform="matrix(2.8196297,0,0,2.8196297,200,109.77185)"><path
     d="m 463.5,32 h -336 C 101.309,32 80,53.309 80,79.5 v 40 V 384 H 7.5 C 3.358,384 0,387.358 0,391.5 v 40 C 0,457.691 21.309,479 47.5,479 h 336 c 26.191,0 47.5,-21.309 47.5,-47.5 V 127 h 72.5 c 4.142,0 7.5,-3.358 7.5,-7.5 v -40 C 511,53.309 489.691,32 463.5,32 Z M 47.5,464 C 29.58,464 15,449.42 15,431.5 V 399 h 72.461 c 0.013,0 0.026,0.002 0.039,0.002 0.013,0 0.026,-0.002 0.039,-0.002 H 336 v 32.5 c 0,12.56 4.9,23.997 12.889,32.5 z M 416,431.5 C 416,449.42 401.42,464 383.5,464 365.58,464 351,449.42 351,431.5 v -40 c 0,-4.142 -3.358,-7.5 -7.5,-7.5 H 95 V 119.5 79.5 C 95,61.58 109.58,47 127.5,47 H 428.906 C 420.912,55.504 416,66.936 416,79.5 v 40 z M 496,112 H 431 V 79.5 C 431,61.58 445.58,47 463.5,47 481.42,47 496,61.58 496,79.5 Z"
     id="path2"
     inkscape:connector-curvature="0" /><g
     style="fill:#000080;fill-opacity:1"
     transform="matrix(0.58782607,0,0,0.58782607,103.47608,74.607797)"
     id="g126"><path
       style="fill:#000080;fill-opacity:1"
       inkscape:connector-curvature="0"
       d="m 159.582,75.459 v 285.32 c -14.274,-10.374 -32.573,-16.616 -52.5,-16.616 -45.491,0 -82.5,32.523 -82.5,72.5 0,39.977 37.009,72.5 82.5,72.5 45.491,0 82.5,-32.523 82.5,-72.5 V 168.942 l 245,-60.615 v 184.416 c -14.274,-10.374 -32.573,-16.616 -52.5,-16.616 -45.491,0 -82.5,32.523 -82.5,72.5 0,39.977 37.009,72.5 82.5,72.5 45.491,0 82.5,-32.523 82.5,-72.5 V 0 Z"
       id="path71" /><g
       style="fill:#000080;fill-opacity:1"
       id="g73">
</g><g
       style="fill:#000080;fill-opacity:1"
       id="g75">
</g><g
       style="fill:#000080;fill-opacity:1"
       id="g77">
</g><g
       style="fill:#000080;fill-opacity:1"
       id="g79">
</g><g
       style="fill:#000080;fill-opacity:1"
       id="g81">
</g><g
       style="fill:#000080;fill-opacity:1"
       id="g83">
</g><g
       style="fill:#000080;fill-opacity:1"
       id="g85">
</g><g
       style="fill:#000080;fill-opacity:1"
       id="g87">
</g><g
       style="fill:#000080;fill-opacity:1"
       id="g89">
</g><g
       style="fill:#000080;fill-opacity:1"
       id="g91">
</g><g
       style="fill:#000080;fill-opacity:1"
       id="g93">
</g><g
       style="fill:#000080;fill-opacity:1"
       id="g95">
</g><g
       style="fill:#000080;fill-opacity:1"
       id="g97">
</g><g
       style="fill:#000080;fill-opacity:1"
       id="g99">
</g><g
       style="fill:#000080;fill-opacity:1"
       id="g101">
</g></g></g></svg>